<svg width="24" height="24" viewBox="0 0 24 24" fill="none" xmlns="http://www.w3.org/2000/svg">
<path d="M17 11C17.5523 11 18 11.4477 18 12C18 12.5523 17.5523 13 17 13V11ZM3 13C2.44771 13 2 12.5523 2 12C2 11.4477 2.44771 11 3 11V13ZM17 13H3V11H17V13Z" fill="white"/>
<path d="M17 11C17.5523 11 18 11.4477 18 12C18 12.5523 17.5523 13 17 13V11ZM3 13C2.44771 13 2 12.5523 2 12C2 11.4477 2.44771 11 3 11V13ZM17 13H3V11H17V13Z" fill="#333333"/>
<path d="M21.7152 11.7966L16.265 7.9036C15.7355 7.52539 15 7.90389 15 8.55459V15.4454C15 16.0961 15.7355 16.4746 16.265 16.0964L21.7152 12.2034C21.8548 12.1037 21.8548 11.8963 21.7152 11.7966Z" fill="white"/>
<path d="M21.7152 11.7966L16.265 7.9036C15.7355 7.52539 15 7.90389 15 8.55459V15.4454C15 16.0961 15.7355 16.4746 16.265 16.0964L21.7152 12.2034C21.8548 12.1037 21.8548 11.8963 21.7152 11.7966Z" fill="#333333"/>
</svg>
