<svg width="24" height="24" viewBox="0 0 24 24" fill="none" xmlns="http://www.w3.org/2000/svg">
<path d="M5 12.0001L4.29289 11.293L3.58579 12.0001L4.29289 12.7072L5 12.0001ZM17 13.0001C17.5523 13.0001 18 12.5524 18 12.0001C18 11.4478 17.5523 11.0001 17 11.0001V13.0001ZM8.29289 7.29297L4.29289 11.293L5.70711 12.7072L9.70711 8.70719L8.29289 7.29297ZM4.29289 12.7072L8.29289 16.7072L9.70711 15.293L5.70711 11.293L4.29289 12.7072ZM5 13.0001H17V11.0001H5V13.0001Z" fill="white"/>
<path d="M5 12.0001L4.29289 11.293L3.58579 12.0001L4.29289 12.7072L5 12.0001ZM17 13.0001C17.5523 13.0001 18 12.5524 18 12.0001C18 11.4478 17.5523 11.0001 17 11.0001V13.0001ZM8.29289 7.29297L4.29289 11.293L5.70711 12.7072L9.70711 8.70719L8.29289 7.29297ZM4.29289 12.7072L8.29289 16.7072L9.70711 15.293L5.70711 11.293L4.29289 12.7072ZM5 13.0001H17V11.0001H5V13.0001Z" fill="#333333"/>
</svg>
