<svg width="18" height="18" viewBox="0 0 18 18" fill="none" xmlns="http://www.w3.org/2000/svg">
<path fill-rule="evenodd" clip-rule="evenodd" d="M14.204 7.79594L16 5.99994C16.5453 5.45469 16.8179 5.18207 16.9636 4.88797C17.2409 4.32842 17.2409 3.67147 16.9636 3.11191C16.8179 2.81782 16.5453 2.54519 16 1.99994C15.4548 1.45469 15.1821 1.18207 14.888 1.03633C14.3285 0.759049 13.6715 0.759049 13.112 1.03633C12.8179 1.18207 12.5453 1.45469 12 1.99994L10.1814 3.8186C11.1452 5.4692 12.5314 6.84476 14.204 7.79594ZM8.7269 5.27306L1.8564 12.1435C1.43134 12.5686 1.21881 12.7811 1.07907 13.0422C0.939341 13.3033 0.880391 13.598 0.762501 14.1875L0.147101 17.2645C0.0805808 17.5971 0.047321 17.7634 0.141931 17.858C0.236541 17.9526 0.402841 17.9193 0.735451 17.8528L3.81243 17.2374C4.40189 17.1195 4.69661 17.0606 4.95771 16.9208C5.21881 16.7811 5.43134 16.5686 5.8564 16.1435L12.7458 9.25414C11.1241 8.23854 9.7524 6.87622 8.7269 5.27306Z" fill="white"/>
<path fill-rule="evenodd" clip-rule="evenodd" d="M14.204 7.79594L16 5.99994C16.5453 5.45469 16.8179 5.18207 16.9636 4.88797C17.2409 4.32842 17.2409 3.67147 16.9636 3.11191C16.8179 2.81782 16.5453 2.54519 16 1.99994C15.4548 1.45469 15.1821 1.18207 14.888 1.03633C14.3285 0.759049 13.6715 0.759049 13.112 1.03633C12.8179 1.18207 12.5453 1.45469 12 1.99994L10.1814 3.8186C11.1452 5.4692 12.5314 6.84476 14.204 7.79594ZM8.7269 5.27306L1.8564 12.1435C1.43134 12.5686 1.21881 12.7811 1.07907 13.0422C0.939341 13.3033 0.880391 13.598 0.762501 14.1875L0.147101 17.2645C0.0805808 17.5971 0.047321 17.7634 0.141931 17.858C0.236541 17.9526 0.402841 17.9193 0.735451 17.8528L3.81243 17.2374C4.40189 17.1195 4.69661 17.0606 4.95771 16.9208C5.21881 16.7811 5.43134 16.5686 5.8564 16.1435L12.7458 9.25414C11.1241 8.23854 9.7524 6.87622 8.7269 5.27306Z" fill="#333333"/>
</svg>
