<svg width="60" height="60" viewBox="0 0 60 60" fill="none" xmlns="http://www.w3.org/2000/svg">
<path d="M0 6.4C0 2.86538 2.86538 0 6.4 0H53.6C57.1348 0 60 2.86538 60 6.4V53.6C60 57.1348 57.1348 60 53.6 60H6.4C2.86538 60 0 57.1348 0 53.6V6.4Z" fill="white"/>
<path d="M0 6.4C0 2.86538 2.86538 0 6.4 0H53.6C57.1348 0 60 2.86538 60 6.4V53.6C60 57.1348 57.1348 60 53.6 60H6.4C2.86538 60 0 57.1348 0 53.6V6.4Z" fill="#333333"/>
<path d="M43.6464 20.8032C48.7128 20.8032 52.604 22.0192 55.32 24.4512C58.0356 26.8426 59.3936 30.4704 59.3936 35.3344V54H50.5168V49.9264C48.7332 52.9664 45.4096 54.4864 40.5456 54.4864C38.0323 54.4864 35.8435 54.0608 33.979 53.2096C32.155 52.3584 30.7566 51.1828 29.7838 49.6832C28.811 48.1836 28.3246 46.4812 28.3246 44.576C28.3246 41.536 29.4595 39.1445 31.7294 37.4016C34.0398 35.6586 37.5865 34.7872 42.3696 34.7872H49.9088C49.9088 32.72 49.2804 31.1392 48.024 30.0448C46.7672 28.9098 44.8824 28.3424 42.3696 28.3424C40.6264 28.3424 38.9038 28.6261 37.2014 29.1936C35.5395 29.7205 34.1209 30.4501 32.9454 31.3824L29.5406 24.7552C31.3241 23.4986 33.4521 22.5258 35.9246 21.8368C38.4377 21.1477 41.0116 20.8032 43.6464 20.8032ZM42.9168 48.1024C44.538 48.1024 45.9768 47.7376 47.2336 47.008C48.49 46.238 49.3816 45.1232 49.9088 43.664V40.32H43.4032C39.5118 40.32 37.5662 41.5968 37.5662 44.1504C37.5662 45.3664 38.0323 46.3392 38.9646 47.0688C39.9374 47.758 41.2548 48.1024 42.9168 48.1024Z" fill="white"/>
</svg>
