<svg width="313" height="65" viewBox="0 0 313 65" fill="none" xmlns="http://www.w3.org/2000/svg">
<path d="M0 8.66667C0 3.8802 3.89263 0 8.69444 0H304.306C309.108 0 313 3.8802 313 8.66667V56.3333C313 61.12 309.108 65 304.306 65H8.69444C3.89264 65 0 61.12 0 56.3333V8.66667Z" fill="#333333"/>
<path d="M54.2618 44.9859V32.0218C54.2618 31.0288 54.0594 30.1676 53.6547 29.4384C53.2655 28.6936 52.674 28.1195 51.8801 27.716C51.0862 27.3126 50.1055 27.1109 48.9381 27.1109C47.8485 27.1109 46.8911 27.297 46.0661 27.6694C45.2567 28.0418 44.6185 28.5306 44.1515 29.1358C43.7001 29.7409 43.4743 30.3926 43.4743 31.0908H39.1547C39.1547 30.1909 39.3882 29.2987 39.8552 28.4142C40.3222 27.5298 40.9915 26.7307 41.8633 26.0169C42.7505 25.2877 43.809 24.7136 45.0387 24.2946C46.2841 23.8602 47.6695 23.6429 49.1949 23.6429C51.0318 23.6429 52.6506 23.9533 54.0516 24.5739C55.4684 25.1946 56.5731 26.1333 57.367 27.3902C58.1767 28.6315 58.5815 30.1909 58.5815 32.0684V43.7989C58.5815 44.6367 58.6516 45.5289 58.7913 46.4755C58.9472 47.422 59.1728 48.2366 59.4689 48.9193V49.2917H54.9625C54.744 48.7951 54.5729 48.1357 54.4484 47.3134C54.324 46.4755 54.2618 45.6996 54.2618 44.9859ZM55.0087 34.0235L55.0554 37.0492H50.6893C49.4595 37.0492 48.3621 37.15 47.3971 37.3517C46.4319 37.538 45.6225 37.825 44.9687 38.2129C44.3149 38.6008 43.8168 39.0896 43.4743 39.6792C43.1319 40.2533 42.9607 40.9283 42.9607 41.7041C42.9607 42.4955 43.1397 43.217 43.4977 43.8687C43.8557 44.5204 44.3927 45.0401 45.1088 45.4281C45.8404 45.8005 46.7355 45.9867 47.794 45.9867C49.1171 45.9867 50.2846 45.7074 51.2964 45.1488C52.3082 44.5902 53.1099 43.9075 53.7013 43.1006C54.3084 42.2937 54.6353 41.5102 54.6821 40.7499L56.5264 42.8213C56.4177 43.473 56.1221 44.1945 55.6396 44.9859C55.157 45.7772 54.5109 46.5375 53.7013 47.2668C52.9075 47.9805 51.9579 48.5779 50.8527 49.0589C49.7631 49.5244 48.5334 49.7572 47.1636 49.7572C45.4512 49.7572 43.9491 49.4236 42.6571 48.7564C41.3807 48.0891 40.3844 47.197 39.6684 46.0798C38.9679 44.9471 38.6177 43.6825 38.6177 42.286C38.6177 40.936 38.8823 39.749 39.4115 38.725C39.9408 37.6853 40.7035 36.8242 41.6998 36.1415C42.696 35.4432 43.8946 34.9156 45.2956 34.5588C46.6966 34.2019 48.261 34.0235 49.9888 34.0235H55.0087ZM75.953 24.1084V27.4134H62.2941V24.1084H75.953ZM66.9173 17.9871H71.2368V43.0541C71.2368 43.9075 71.3689 44.5514 71.6335 44.9859C71.8982 45.4203 72.2405 45.7074 72.6611 45.847C73.0811 45.9867 73.5327 46.0565 74.0153 46.0565C74.3734 46.0565 74.7467 46.0255 75.1363 45.9634C75.5406 45.8858 75.8444 45.8238 76.0465 45.7772L76.0699 49.2917C75.7275 49.4003 75.276 49.5012 74.7157 49.5943C74.1707 49.7029 73.5093 49.7572 72.7312 49.7572C71.6726 49.7572 70.6994 49.5477 69.8126 49.1288C68.9252 48.7098 68.2166 48.0116 67.6873 47.034C67.1738 46.041 66.9173 44.7066 66.9173 43.0308V17.9871ZM91.5971 24.1084V27.4134H77.9381V24.1084H91.5971ZM82.5614 17.9871H86.8809V43.0541C86.8809 43.9075 87.0129 44.5514 87.2776 44.9859C87.5422 45.4203 87.8845 45.7074 88.3051 45.847C88.7252 45.9867 89.1767 46.0565 89.6593 46.0565C90.0174 46.0565 90.3907 46.0255 90.7803 45.9634C91.1846 45.8858 91.4884 45.8238 91.6905 45.7772L91.7139 49.2917C91.3715 49.4003 90.92 49.5012 90.3597 49.5943C89.8152 49.7029 89.1534 49.7572 88.3752 49.7572C87.3167 49.7572 86.344 49.5477 85.4566 49.1288C84.5692 48.7098 83.8612 48.0116 83.3319 47.034C82.8178 46.041 82.5614 44.7066 82.5614 43.0308V17.9871ZM111.561 44.9859V32.0218C111.561 31.0288 111.358 30.1676 110.954 29.4384C110.565 28.6936 109.973 28.1195 109.179 27.716C108.385 27.3126 107.405 27.1109 106.237 27.1109C105.148 27.1109 104.19 27.297 103.366 27.6694C102.556 28.0418 101.918 28.5306 101.451 29.1358C101 29.7409 100.774 30.3926 100.774 31.0908H96.454C96.454 30.1909 96.6877 29.2987 97.1544 28.4142C97.6212 27.5298 98.2907 26.7307 99.1623 26.0169C100.05 25.2877 101.108 24.7136 102.338 24.2946C103.583 23.8602 104.969 23.6429 106.494 23.6429C108.331 23.6429 109.95 23.9533 111.351 24.5739C112.767 25.1946 113.873 26.1333 114.667 27.3902C115.476 28.6315 115.881 30.1909 115.881 32.0684V43.7989C115.881 44.6367 115.951 45.5289 116.091 46.4755C116.246 47.422 116.472 48.2366 116.768 48.9193V49.2917H112.262C112.044 48.7951 111.873 48.1357 111.748 47.3134C111.623 46.4755 111.561 45.6996 111.561 44.9859ZM112.308 34.0235L112.355 37.0492H107.989C106.759 37.0492 105.661 37.15 104.696 37.3517C103.731 37.538 102.922 37.825 102.268 38.2129C101.614 38.6008 101.116 39.0896 100.774 39.6792C100.431 40.2533 100.26 40.9283 100.26 41.7041C100.26 42.4955 100.439 43.217 100.797 43.8687C101.155 44.5204 101.692 45.0401 102.408 45.4281C103.139 45.8005 104.035 45.9867 105.093 45.9867C106.416 45.9867 107.584 45.7074 108.596 45.1488C109.608 44.5902 110.409 43.9075 111.001 43.1006C111.608 42.2937 111.934 41.5102 111.981 40.7499L113.826 42.8213C113.717 43.473 113.421 44.1945 112.939 44.9859C112.456 45.7772 111.81 46.5375 111.001 47.2668C110.207 47.9805 109.257 48.5779 108.152 49.0589C107.062 49.5244 105.833 49.7572 104.463 49.7572C102.75 49.7572 101.248 49.4236 99.9562 48.7564C98.6798 48.0891 97.6837 47.197 96.9675 46.0798C96.2671 44.9471 95.9171 43.6825 95.9171 42.286C95.9171 40.936 96.1818 39.749 96.711 38.725C97.2403 37.6853 98.0027 36.8242 98.9993 36.1415C99.9954 35.4432 101.194 34.9156 102.595 34.5588C103.996 34.2019 105.56 34.0235 107.288 34.0235H112.308ZM132.785 46.2194C133.813 46.2194 134.762 46.0099 135.634 45.591C136.506 45.172 137.222 44.5979 137.782 43.8687C138.343 43.1239 138.662 42.2782 138.739 41.3317H142.849C142.771 42.8213 142.266 44.21 141.331 45.4979C140.413 46.7703 139.207 47.8021 137.712 48.5934C136.218 49.3693 134.576 49.7572 132.785 49.7572C130.887 49.7572 129.229 49.4236 127.812 48.7564C126.411 48.0891 125.243 47.1737 124.31 46.0099C123.392 44.8462 122.699 43.5118 122.232 42.0067C121.78 40.4861 121.554 38.8801 121.554 37.1888V36.2113C121.554 34.52 121.78 32.9218 122.232 31.4167C122.699 29.8961 123.392 28.5539 124.31 27.3902C125.243 26.2264 126.411 25.311 127.812 24.6437C129.229 23.9765 130.887 23.6429 132.785 23.6429C134.762 23.6429 136.49 24.0463 137.969 24.8532C139.448 25.6446 140.608 26.7307 141.448 28.1117C142.304 29.4771 142.771 31.0288 142.849 32.7666H138.739C138.662 31.727 138.366 30.7882 137.853 29.9504C137.354 29.1125 136.67 28.4453 135.797 27.9488C134.942 27.4367 133.937 27.1807 132.785 27.1807C131.462 27.1807 130.349 27.4445 129.447 27.972C128.559 28.484 127.851 29.1823 127.322 30.0667C126.808 30.9357 126.435 31.9054 126.201 32.9761C125.983 34.0312 125.874 35.1096 125.874 36.2113V37.1888C125.874 38.2905 125.983 39.3766 126.201 40.4473C126.419 41.5179 126.785 42.4877 127.299 43.3566C127.828 44.2255 128.536 44.9238 129.423 45.4514C130.326 45.9634 131.447 46.2194 132.785 46.2194ZM152.026 13.5417V49.2917H147.706V13.5417H152.026ZM150.998 35.7458L149.2 35.676C149.216 33.9536 149.473 32.3632 149.97 30.9046C150.469 29.4306 151.169 28.1505 152.072 27.0643C152.975 25.9781 154.049 25.1403 155.294 24.5506C156.555 23.9455 157.948 23.6429 159.474 23.6429C160.719 23.6429 161.84 23.8136 162.836 24.155C163.832 24.4808 164.681 25.0084 165.381 25.7376C166.097 26.4669 166.642 27.4134 167.016 28.5772C167.389 29.7254 167.576 31.1297 167.576 32.7899V49.2917H163.233V32.7433C163.233 31.4244 163.039 30.3693 162.649 29.578C162.26 28.7711 161.692 28.1893 160.945 27.8324C160.198 27.46 159.28 27.2738 158.189 27.2738C157.116 27.2738 156.135 27.4988 155.247 27.9488C154.376 28.3987 153.621 29.0194 152.983 29.8108C152.36 30.6021 151.87 31.5098 151.512 32.5339C151.169 33.5425 150.998 34.6131 150.998 35.7458ZM174.02 13.5417H178.363V44.404L177.99 49.2917H174.02V13.5417ZM195.432 36.4906V36.9793C195.432 38.8103 195.214 40.5094 194.778 42.0765C194.342 43.6282 193.704 44.9781 192.863 46.1263C192.023 47.2745 190.995 48.1668 189.781 48.8029C188.567 49.4391 187.174 49.7572 185.602 49.7572C183.998 49.7572 182.59 49.4857 181.375 48.9426C180.177 48.384 179.165 47.5849 178.34 46.5453C177.515 45.5057 176.854 44.2488 176.355 42.7748C175.873 41.3007 175.538 39.6404 175.351 37.7939V35.6527C175.538 33.7907 175.873 32.1227 176.355 30.6486C176.854 29.1746 177.515 27.9177 178.34 26.8781C179.165 25.823 180.177 25.0239 181.375 24.4808C182.574 23.9222 183.967 23.6429 185.555 23.6429C187.143 23.6429 188.552 23.9533 189.781 24.5739C191.011 25.1791 192.039 26.048 192.863 27.1807C193.704 28.3134 194.342 29.6711 194.778 31.2538C195.214 32.8209 195.432 34.5665 195.432 36.4906ZM191.089 36.9793V36.4906C191.089 35.2338 190.972 34.0545 190.739 32.9528C190.505 31.8356 190.132 30.8581 189.618 30.0202C189.104 29.1668 188.427 28.4996 187.586 28.0186C186.746 27.5221 185.711 27.2738 184.481 27.2738C183.391 27.2738 182.442 27.46 181.632 27.8324C180.838 28.2048 180.161 28.7091 179.601 29.3452C179.04 29.9659 178.581 30.6796 178.224 31.4865C177.881 32.2778 177.624 33.1002 177.453 33.9536V39.5629C177.702 40.649 178.107 41.6964 178.667 42.7049C179.243 43.698 180.006 44.5126 180.955 45.1488C181.92 45.7849 183.111 46.1031 184.528 46.1031C185.695 46.1031 186.691 45.8703 187.516 45.4048C188.357 44.9238 189.034 44.2644 189.548 43.4265C190.077 42.5886 190.466 41.6188 190.715 40.5171C190.964 39.4154 191.089 38.2362 191.089 36.9793ZM199.752 36.9793V36.444C199.752 34.6286 200.016 32.9451 200.546 31.3934C201.075 29.8262 201.837 28.4686 202.834 27.3203C203.83 26.1566 205.036 25.2566 206.453 24.6204C207.869 23.9688 209.457 23.6429 211.216 23.6429C212.991 23.6429 214.586 23.9688 216.003 24.6204C217.434 25.2566 218.649 26.1566 219.645 27.3203C220.657 28.4686 221.427 29.8262 221.957 31.3934C222.486 32.9451 222.751 34.6286 222.751 36.444V36.9793C222.751 38.7948 222.486 40.4783 221.957 42.03C221.427 43.5816 220.657 44.9393 219.645 46.1031C218.649 47.2513 217.443 48.1512 216.026 48.8029C214.625 49.4391 213.037 49.7572 211.263 49.7572C209.488 49.7572 207.893 49.4391 206.476 48.8029C205.06 48.1512 203.846 47.2513 202.834 46.1031C201.837 44.9393 201.075 43.5816 200.546 42.03C200.016 40.4783 199.752 38.7948 199.752 36.9793ZM204.071 36.444V36.9793C204.071 38.2362 204.219 39.4232 204.515 40.5404C204.811 41.6421 205.254 42.6196 205.846 43.473C206.453 44.3264 207.208 45.0014 208.111 45.4979C209.013 45.9789 210.064 46.2194 211.263 46.2194C212.445 46.2194 213.481 45.9789 214.368 45.4979C215.271 45.0014 216.018 44.3264 216.61 43.473C217.201 42.6196 217.645 41.6421 217.94 40.5404C218.252 39.4232 218.408 38.2362 218.408 36.9793V36.444C218.408 35.2027 218.252 34.0312 217.94 32.9296C217.645 31.8124 217.193 30.8271 216.586 29.9736C215.995 29.1047 215.248 28.422 214.345 27.9255C213.457 27.4289 212.415 27.1807 211.216 27.1807C210.033 27.1807 208.99 27.4289 208.087 27.9255C207.2 28.422 206.453 29.1047 205.846 29.9736C205.254 30.8271 204.811 31.8124 204.515 32.9296C204.219 34.0312 204.071 35.2027 204.071 36.444ZM227.023 36.9793V36.444C227.023 34.6286 227.288 32.9451 227.817 31.3934C228.347 29.8262 229.109 28.4686 230.106 27.3203C231.102 26.1566 232.308 25.2566 233.725 24.6204C235.141 23.9688 236.729 23.6429 238.488 23.6429C240.263 23.6429 241.858 23.9688 243.275 24.6204C244.707 25.2566 245.921 26.1566 246.917 27.3203C247.929 28.4686 248.7 29.8262 249.229 31.3934C249.758 32.9451 250.022 34.6286 250.022 36.444V36.9793C250.022 38.7948 249.758 40.4783 249.229 42.03C248.7 43.5816 247.929 44.9393 246.917 46.1031C245.921 47.2513 244.714 48.1512 243.298 48.8029C241.897 49.4391 240.309 49.7572 238.535 49.7572C236.76 49.7572 235.165 49.4391 233.748 48.8029C232.331 48.1512 231.117 47.2513 230.106 46.1031C229.109 44.9393 228.347 43.5816 227.817 42.03C227.288 40.4783 227.023 38.7948 227.023 36.9793ZM231.343 36.444V36.9793C231.343 38.2362 231.491 39.4232 231.787 40.5404C232.082 41.6421 232.526 42.6196 233.118 43.473C233.725 44.3264 234.48 45.0014 235.383 45.4979C236.286 45.9789 237.336 46.2194 238.535 46.2194C239.718 46.2194 240.753 45.9789 241.64 45.4979C242.543 45.0014 243.29 44.3264 243.882 43.473C244.473 42.6196 244.917 41.6421 245.213 40.5404C245.524 39.4232 245.679 38.2362 245.679 36.9793V36.444C245.679 35.2027 245.524 34.0312 245.213 32.9296C244.917 31.8124 244.465 30.8271 243.859 29.9736C243.267 29.1047 242.52 28.422 241.617 27.9255C240.73 27.4289 239.687 27.1807 238.488 27.1807C237.305 27.1807 236.262 27.4289 235.359 27.9255C234.472 28.422 233.725 29.1047 233.118 29.9736C232.526 30.8271 232.082 31.8124 231.787 32.9296C231.491 34.0312 231.343 35.2027 231.343 36.444ZM259.782 13.5417V49.2917H255.44V13.5417H259.782ZM275.217 24.1084L264.196 35.8621L258.032 42.2395L257.681 37.6543L262.094 32.3942L269.94 24.1084H275.217ZM271.27 49.2917L262.258 37.2819L264.499 33.4416L276.361 49.2917H271.27Z" fill="white"/>
</svg>
